HIERARCHY
ROOT joint_Root
{
	OFFSET 0.0 0.0 0.0
	CHANNELS 6 Xposition Yposition Zposition Zrotation Xrotation Yrotation 
	JOINT Hips
	{
		OFFSET -17.1583 93.1646 452.98
		CHANNELS 6 Xposition Yposition Zposition Zrotation Xrotation Yrotation 
		JOINT Spine
		{
			OFFSET 15.7357 0.0 0.0
			CHANNELS 6 Xposition Yposition Zposition Zrotation Xrotation Yrotation 
			JOINT Chest
			{
				OFFSET 8.98455 -0.406207 0.0
				CHANNELS 6 Xposition Yposition Zposition Zrotation Xrotation Yrotation 
				JOINT Neck
				{
					OFFSET 16.3773 0.0 0.0
					CHANNELS 6 Xposition Yposition Zposition Zrotation Xrotation Yrotation 
					JOINT Head
					{
						OFFSET 6.45672 0.0 0.0
						CHANNELS 6 Xposition Yposition Zposition Zrotation Xrotation Yrotation 
						End Site
						{
							OFFSET 0.0 0.0 0.0
						}
					}
				}
				JOINT Shoulder_L
				{
					OFFSET 12.9942 -0.242716 4.98039
					CHANNELS 6 Xposition Yposition Zposition Zrotation Xrotation Yrotation 
					JOINT UpperArm_L
					{
						OFFSET 5.34809 0.0 0.0
						CHANNELS 6 Xposition Yposition Zposition Zrotation Xrotation Yrotation 
						JOINT LowerArm_L
						{
							OFFSET 24.3286 1.87007e-05 0.0
							CHANNELS 6 Xposition Yposition Zposition Zrotation Xrotation Yrotation 
							JOINT Hand_L
							{
								OFFSET 22.2916 0.0 0.0
								CHANNELS 6 Xposition Yposition Zposition Zrotation Xrotation Yrotation 
								End Site
								{
									OFFSET 0.0 0.0 0.0
								}
							}
						}
					}
				}
				JOINT Shoulder_R
				{
					OFFSET 12.9945 -0.242716 -4.98039
					CHANNELS 6 Xposition Yposition Zposition Zrotation Xrotation Yrotation 
					JOINT UpperArm_R
					{
						OFFSET -5.34813 0.0 0.0
						CHANNELS 6 Xposition Yposition Zposition Zrotation Xrotation Yrotation 
						JOINT LowerArm_R
						{
							OFFSET -24.3289 0.000322201 0.0
							CHANNELS 6 Xposition Yposition Zposition Zrotation Xrotation Yrotation 
							JOINT Hand_R
							{
								OFFSET -22.2915 -0.000108084 0.0
								CHANNELS 6 Xposition Yposition Zposition Zrotation Xrotation Yrotation 
								End Site
								{
									OFFSET 0.0 0.0 0.0
								}
							}
						}
					}
				}
			}
		}
		JOINT UpperLeg_L
		{
			OFFSET -2.19248 -6.46944 0.0
			CHANNELS 6 Xposition Yposition Zposition Zrotation Xrotation Yrotation 
			JOINT LowerLeg_L
			{
				OFFSET 39.0811 0.0 -1.23785e-05
				CHANNELS 6 Xposition Yposition Zposition Zrotation Xrotation Yrotation 
				JOINT Foot_L
				{
					OFFSET 40.9854 0.0 -1.26872e-05
					CHANNELS 6 Xposition Yposition Zposition Zrotation Xrotation Yrotation 
					JOINT Toes_L
					{
						OFFSET 11.7543 0.0 0.0
						CHANNELS 6 Xposition Yposition Zposition Zrotation Xrotation Yrotation 
						End Site
						{
							OFFSET 0.0 0.0 0.0
						}
					}
				}
			}
		}
		JOINT UpperLeg_R
		{
			OFFSET -2.19251 6.46944 0.0
			CHANNELS 6 Xposition Yposition Zposition Zrotation Xrotation Yrotation 
			JOINT LowerLeg_R
			{
				OFFSET -39.0811 -0.00228153 -0.0401928
				CHANNELS 6 Xposition Yposition Zposition Zrotation Xrotation Yrotation 
				JOINT Foot_R
				{
					OFFSET -40.9854 0.0 0.0
					CHANNELS 6 Xposition Yposition Zposition Zrotation Xrotation Yrotation 
					JOINT Toes_R
					{
						OFFSET -11.7543 0.0 0.0
						CHANNELS 6 Xposition Yposition Zposition Zrotation Xrotation Yrotation 
						End Site
						{
							OFFSET 0.0 0.0 0.0
						}
					}
				}
			}
		}
	}
}
MOTION
Frames:	5
Frame Time:	0.0333333
0.000000 0.000000 0.000000 0.000000 0.000000 -0.000000 1.530170 93.287500 0.272071 90.343100 1.450970 -0.661180 15.735700 0.000005 -0.000001 73.286500 87.742500 -63.994600 8.984550 -0.406207 -0.000000 -3.197520 -2.182940 18.529300 16.377300 -0.000001 -0.000001 -1.863430 -1.311400 8.472660 6.456720 -0.000001 -0.000000 -2.143730 -2.300430 8.407370 12.994200 -0.242716 4.980390 -87.646500 -4.980600 -64.667700 5.348090 -0.000007 -0.000001 -29.645300 -52.748300 -56.217500 24.328600 0.000019 0.000005 0.000053 28.783700 -0.000003 22.291600 -0.000001 0.000005 42.541100 4.416900 17.952900 12.994500 -0.242716 -4.980390 89.354000 2.139700 -73.195200 -5.348130 -0.000001 -0.000004 -56.072700 3.917610 -6.763470 -24.328900 0.000322 -0.000009 2.932850 10.230100 -16.096600 -22.291500 -0.000108 -0.000004 8.480510 5.221840 2.165520 -2.192480 -6.469440 -0.000000 -176.812000 -8.174120 -0.201622 39.081100 -0.000007 -0.000012 0.024267 -0.120801 11.358900 40.985400 -0.000006 -0.000013 0.424345 16.461000 -67.671500 11.754300 -0.000000 0.000003 -0.000335 0.173088 -9.556170 -2.192510 6.469440 -0.000001 173.598000 5.861580 -178.261000 -39.081100 -0.002282 -0.040193 0.006848 -0.022291 8.941210 -40.985400 0.000008 0.000006 -8.772700 3.590680 -66.378300 -11.754300 -0.000006 -0.000006 -0.010882 0.277783 -5.285950
0.000000 0.000000 0.000000 0.000000 0.000000 -0.000000 1.506280 93.281400 0.303149 90.301900 1.425310 -0.704174 15.735700 0.000005 -0.000001 73.819700 87.746900 -64.542800 8.984550 -0.406207 -0.000000 -3.198150 -2.138840 18.500400 16.377300 -0.000001 -0.000001 -1.779040 -1.320770 8.501550 6.456720 -0.000001 -0.000000 -2.255650 -2.302970 8.350510 12.994200 -0.242716 4.980390 -87.651500 -4.973160 -64.681700 5.348090 -0.000007 -0.000001 -29.716400 -52.720800 -56.213400 24.328600 0.000019 0.000005 0.000057 28.683300 -0.000003 22.291600 -0.000001 0.000005 42.402400 4.427670 17.779700 12.994500 -0.242716 -4.980390 89.354300 2.134040 -73.160600 -5.348130 -0.000001 -0.000004 -56.386100 3.890040 -6.490110 -24.328900 0.000322 -0.000009 2.956840 10.299300 -16.119300 -22.291500 -0.000108 -0.000004 8.414390 5.222830 2.140330 -2.192480 -6.469440 -0.000000 -176.758000 -8.134580 -0.258324 39.081100 -0.000007 -0.000012 0.024241 -0.120074 11.414100 40.985400 -0.000006 -0.000013 0.410520 16.415900 -67.645000 11.754300 -0.000000 0.000003 -0.000109 0.169434 -9.704580 -2.192510 6.469440 -0.000001 173.663000 5.830300 -178.303000 -39.081100 -0.002282 -0.040193 0.006636 -0.020904 8.958330 -40.985400 0.000008 0.000006 -8.814800 3.589620 -66.342100 -11.754300 -0.000006 -0.000006 -0.010523 0.275176 -5.392640
0.000000 0.000000 0.000000 0.000000 0.000000 -0.000000 1.484310 93.290200 0.317593 90.270900 1.464750 -0.740186 15.735700 0.000005 -0.000001 73.507500 87.744700 -64.245800 8.984550 -0.406207 -0.000000 -3.199510 -2.162310 18.469500 16.377300 -0.000001 -0.000001 -1.749280 -1.270160 8.463740 6.456720 -0.000001 -0.000000 -2.294910 -2.284910 8.407470 12.994200 -0.242716 4.980390 -87.652400 -4.973610 -64.692000 5.348090 -0.000007 -0.000001 -29.539600 -52.608600 -56.042200 24.328600 0.000019 0.000005 0.000055 28.651300 -0.000003 22.291600 -0.000001 0.000005 42.214400 4.426320 17.801500 12.994500 -0.242716 -4.980390 89.352800 2.140610 -73.174300 -5.348130 -0.000001 -0.000004 -56.766500 4.037000 -6.251990 -24.328900 0.000322 -0.000009 2.914100 10.175900 -16.078900 -22.291500 -0.000108 -0.000004 8.412000 5.223130 2.132470 -2.192480 -6.469440 -0.000000 -176.721000 -8.096320 -0.246161 39.081100 -0.000007 -0.000012 0.024269 -0.120959 11.345300 40.985400 -0.000006 -0.000013 0.382791 16.382600 -67.705300 11.754300 -0.000000 0.000003 -0.000321 0.172869 -9.565040 -2.192510 6.469440 -0.000001 173.683000 5.941680 -178.198000 -39.081100 -0.002282 -0.040193 0.005901 -0.016679 8.725020 -40.985400 0.000008 0.000006 -8.922330 3.669850 -66.235000 -11.754300 -0.000006 -0.000006 -0.010803 0.277210 -5.309410
0.000000 0.000000 0.000000 0.000000 0.000000 -0.000000 1.455720 93.288800 0.341172 90.219000 1.440480 -0.805088 15.735700 0.000005 -0.000001 73.652600 87.754000 -64.408100 8.984550 -0.406207 -0.000000 -3.215890 -2.145850 18.435300 16.377300 -0.000001 -0.000001 -1.699480 -1.258750 8.496100 6.456720 -0.000001 -0.000000 -2.327550 -2.265340 8.417110 12.994200 -0.242716 4.980390 -87.631500 -5.010050 -64.656900 5.348090 -0.000007 -0.000001 -29.658400 -52.574300 -56.122900 24.328600 0.000019 0.000005 0.000053 28.667200 -0.000003 22.291600 -0.000001 0.000005 42.193200 4.427510 17.782300 12.994500 -0.242716 -4.980390 89.328100 2.217180 -73.135800 -5.348130 -0.000001 -0.000004 -57.173400 4.288620 -6.143220 -24.328900 0.000322 -0.000009 2.871180 10.124500 -15.929300 -22.291500 -0.000108 -0.000004 8.395440 5.221980 2.161900 -2.192480 -6.469440 -0.000000 -176.658000 -8.118130 -0.323339 39.081100 -0.000007 -0.000012 0.024291 -0.120555 11.392500 40.985400 -0.000006 -0.000013 0.369381 16.369100 -67.718100 11.754300 -0.000000 0.000003 -0.000309 0.172678 -9.572800 -2.192510 6.469440 -0.000001 173.762000 5.995660 -178.230000 -39.081100 -0.002282 -0.040193 0.005759 -0.015870 8.663860 -40.985400 0.000008 0.000006 -8.853020 3.701340 -66.199300 -11.754300 -0.000006 -0.000006 -0.010798 0.277176 -5.310780
0.000000 0.000000 0.000000 0.000000 0.000000 -0.000000 1.441090 93.294600 0.369922 90.193100 1.430510 -0.837674 15.735700 0.000005 -0.000001 73.911500 87.757100 -64.677300 8.984550 -0.406207 -0.000000 -3.218370 -2.123840 18.415000 16.377300 -0.000001 -0.000001 -1.675730 -1.245030 8.488010 6.456720 -0.000001 -0.000000 -2.283880 -2.247640 8.420920 12.994200 -0.242716 4.980390 -87.632400 -5.014530 -64.684900 5.348090 -0.000007 -0.000001 -29.649200 -52.521400 -56.088500 24.328600 0.000019 0.000005 0.000055 28.561300 -0.000003 22.291600 -0.000001 0.000005 42.155900 4.431580 17.716800 12.994500 -0.242716 -4.980390 89.320500 2.241930 -73.133300 -5.348130 -0.000001 -0.000004 -57.673500 4.492290 -6.041040 -24.328900 0.000322 -0.000009 2.871070 10.197600 -15.821400 -22.291500 -0.000108 -0.000004 8.451750 5.222200 2.156470 -2.192480 -6.469440 -0.000000 -176.626000 -8.070500 -0.282294 39.081100 -0.000007 -0.000012 0.024169 -0.121063 11.290200 40.985400 -0.000006 -0.000013 0.335470 16.298300 -67.689600 11.754300 -0.000000 0.000003 -0.000229 0.171391 -9.625080 -2.192510 6.469440 -0.000001 173.779000 6.056190 -178.145000 -39.081100 -0.002282 -0.040193 0.005009 -0.011205 8.465320 -40.985400 0.000008 0.000006 -8.979950 3.789330 -66.050300 -11.754300 -0.000006 -0.000006 -0.010816 0.277308 -5.305380
